<?xml version="1.0" encoding="utf-8"?>
<!-- Generator: Adobe Illustrator 17.1.0, SVG Export Plug-In . SVG Version: 6.00 Build 0)  -->
<!DOCTYPE svg PUBLIC "-//W3C//DTD SVG 1.1//EN" "http://www.w3.org/Graphics/SVG/1.1/DTD/svg11.dtd">
<svg version="1.1" id="shelter" xmlns="http://www.w3.org/2000/svg" xmlns:xlink="http://www.w3.org/1999/xlink" x="0px" y="0px"
	 viewBox="0 0 27 32" enable-background="new 0 0 27 32" xml:space="preserve">
<g>
	<path fill="#FFFFFF" d="M12.3,12.7c0,0.9-0.8,1.7-1.7,1.7s-1.7-0.8-1.7-1.7S9.7,11,10.6,11S12.3,11.8,12.3,12.7"/>
	<path fill="#FFFFFF" d="M27,29.6h-6.7v-2.7h2L21.4,25l0,0c-0.3-0.4-0.6-0.6-1.1-0.7V9H6.5v9h1.3l1.9-2.5c0.4-0.6,0.9-0.9,1.9-0.9
		h3.8c1.1,0,1.5-0.1,2.1,0.8L19,18c0.1,0.1,0.1,0.2,0.1,0.4c0,0.4-0.4,0.8-0.8,0.8c-0.3,0-0.6-0.2-0.7-0.4l-1.4-2.5h-2l1.3,2.9
		c0.2,0.5,0.5,0.9,0.6,1.8l0.2,3.6h3.1c0.9,0,1.3,0.2,1.6,0.6l0.6,1.1h-6.4c-0.7,0-1-0.3-1-1l-0.2-4l-3.4,7.2c-0.4,0.9-0.7,1-1.6,1
		H7.7l4.2-8.7l-1.5-3.3l-1.3,1.7c-0.4,0.5-0.4,0.5-1.2,0.5H6.5v9.9H0v-21L13.5,0L27,8.6V29.6z"/>
</g>
</svg>
